<svg xmlns="http://www.w3.org/2000/svg" viewBox="0 0 64 64">
  <rect width="64" height="64" rx="16" fill="#0D0D0D"/>
  <path d="M18.2 20.5c3.4-3.2 7.4-4.8 12-4.8 6.4 0 11.8 3.1 14.7 8.3l-8.2 4.4c-1.4-2.7-3.6-4.1-6.5-4.1-4.4 0-7.5 3.2-7.5 7.7s3.1 7.7 7.5 7.7c2.9 0 5.1-1.4 6.5-4.1l8.2 4.4c-2.9 5.2-8.3 8.3-14.7 8.3-4.6 0-8.6-1.6-12-4.8S13 36.4 13 32s1.8-8.3 5.2-11.5Z" fill="#FFFFFF"/>
  <path d="M42.5 18h7.4c4.9 0 8.1 3.2 8.1 7.5s-3.2 7.5-8.1 7.5h-3.2v13h-8.4V18h4.2Zm4.2 8v.2h2.2c.9 0 1.5-.6 1.5-1.4s-.6-1.4-1.5-1.4h-2.2V26Z" fill="#FFC107"/>
</svg>
